<svg xmlns="http://www.w3.org/2000/svg" xmlns:xlink="http://www.w3.org/1999/xlink" version="1.1" x="0px" y="0px" viewBox="0 0 30 30" style="enable-background:new 0 0 30 30;" xml:space="preserve">
  <path d="M4.067,24.044C2.894,24.25,2,25.27,2,26.5C2,27.878,3.121,29,4.5,29h21c1.379,0,2.5-1.122,2.5-2.5  c0-1.23-0.894-2.25-2.067-2.456c-0.233-1.836-1.123-3.539-2.533-4.772L18.519,15l4.882-4.272c1.41-1.233,2.3-2.936,2.533-4.772  C27.106,5.75,28,4.73,28,3.5C28,2.122,26.879,1,25.5,1h-21C3.121,1,2,2.122,2,3.5c0,1.23,0.894,2.25,2.067,2.456  C4.299,7.792,5.19,9.495,6.6,10.728L11.481,15L6.6,19.272C5.19,20.505,4.299,22.208,4.067,24.044z M25.5,27h-21  C4.225,27,4,26.776,4,26.5S4.225,26,4.5,26H5h20h0.5c0.275,0,0.5,0.224,0.5,0.5S25.775,27,25.5,27z M4.5,3h21  C25.775,3,26,3.224,26,3.5S25.775,4,25.5,4H25H5H4.5C4.225,4,4,3.776,4,3.5S4.225,3,4.5,3z M13.658,15.752  C13.876,15.562,14,15.289,14,15s-0.124-0.562-0.342-0.752L7.916,9.223C6.953,8.38,6.314,7.24,6.09,6h17.82  c-0.225,1.24-0.863,2.38-1.826,3.223l-5.742,5.024C16.124,14.438,16,14.711,16,15s0.124,0.562,0.342,0.752l5.742,5.024  C23.047,21.62,23.686,22.76,23.91,24H6.09c0.225-1.24,0.863-2.38,1.826-3.223L13.658,15.752z"/>
</svg>
