<?xml version="1.0" encoding="UTF-8"?>
<svg width="88px" height="23px" viewBox="0 0 88 23" version="1.1" xmlns="http://www.w3.org/2000/svg" xmlns:xlink="http://www.w3.org/1999/xlink">
    <title>Logo Avril - decomposed</title>
    <g id="Logo-Avril---decomposed" stroke="none" stroke-width="1" fill="none" fill-rule="evenodd">
        <g id="logo-avril" transform="translate(1.000000, -5.000000)" fill="#365460">
            <path d="M45.616,25.12 C46.672,25.12 47.416,24.976 47.8,24.712 L42.304,7.936 C41.704,7.744 40.768,7.624 39.52,7.624 C38.272,7.624 37.336,7.744 36.736,7.936 L31.288,24.712 C31.672,24.976 32.392,25.12 33.424,25.12 C34.384,25.12 35.224,25 35.68,24.712 L36.592,21.472 L42.352,21.472 L43.312,24.712 C43.768,25 44.632,25.12 45.616,25.12 Z M41.344,18.016 L37.552,18.016 L38.224,15.664 C38.608,14.296 39.088,12.352 39.352,10.576 L39.568,10.576 C39.808,12.304 40.216,14.152 40.648,15.64 L41.344,18.016 Z M51.304,25.264 C53.272,25.264 55.456,25.12 56.968,24.688 L60.616,13.264 C60.136,12.928 59.272,12.688 58.144,12.688 C57.16,12.688 56.656,12.856 56.392,12.976 L54.928,18.52 C54.664,19.48 54.4,20.728 54.256,21.904 L54.04,21.904 C53.896,20.704 53.656,19.48 53.392,18.52 L51.808,12.976 C51.544,12.856 51.016,12.688 50.032,12.688 C48.88,12.688 47.992,12.928 47.512,13.264 L51.304,25.264 Z M64.36,25.12 C65.488,25.12 66.112,24.976 66.472,24.784 L66.472,18.328 C66.856,17.224 67.72,16.48 68.992,16.48 C69.736,16.48 70.144,16.672 70.528,16.888 C70.672,16.528 70.792,16.048 70.792,15.232 C70.792,14.104 70.6,13.24 70.192,12.616 C69.928,12.472 69.52,12.4 69.04,12.4 C67.096,12.4 66.376,13.648 66.136,14.896 L65.92,14.896 L65.632,12.616 C64.12,12.616 63.04,12.856 62.248,13.288 L62.248,24.784 C62.608,24.976 63.232,25.12 64.36,25.12 Z M74.488,11.512 C75.856,11.512 76.792,10.648 76.792,9.136 C76.792,7.696 75.856,6.88 74.488,6.88 C73.168,6.88 72.184,7.768 72.184,9.136 C72.184,10.672 73,11.512 74.488,11.512 Z M74.488,25.12 C75.616,25.12 76.24,24.976 76.6,24.784 L76.6,13.096 C76.24,12.904 75.616,12.76 74.488,12.76 C73.36,12.76 72.736,12.904 72.376,13.096 L72.376,24.784 C72.736,24.976 73.36,25.12 74.488,25.12 Z M82.984,25.48 C83.968,25.48 84.712,25.288 85.288,24.928 C85.912,24.232 86.296,22.552 86.08,21.448 C85.624,21.736 85.192,21.832 84.712,21.832 C84.016,21.832 83.704,21.592 83.704,20.728 L83.704,6.976 C81.736,6.976 80.416,7.264 79.48,7.816 L79.48,21.328 C79.48,23.656 80.176,25.48 82.984,25.48 Z" id="Avril" fill-rule="nonzero"></path>
            <path d="M22.9742105,6.43405021 C23.6435497,7.68560571 24,8.9319156 24,12.3260027 L24,17.1791352 C24,20.5732223 23.6435497,21.8195322 22.9742105,23.0710877 C22.3048713,24.3226432 21.3226432,25.3048713 20.0710877,25.9742105 C18.8195322,26.6435497 17.5732223,27 14.1791352,27 L9.82086478,27 C6.42677771,27 5.18046782,26.6435497 3.92891232,25.9742105 C2.67735682,25.3048713 1.69512874,24.3226432 1.02578954,23.0710877 C0.356450331,21.8195322 4.1589967e-16,20.5732223 -7.10476783e-16,17.1791352 L-1.86116059e-16,12.3260027 C1.08948821e-16,8.9319156 0.356450331,7.68560571 1.02578954,6.43405021 C1.10245725,6.29069405 1.18323005,6.15087145 1.26804248,6.01464789 L12,15.8482024 L22.7232126,6.00063759 C22.8112219,6.14127995 22.894912,6.28577497 22.9742105,6.43405021 Z" id="pitcogram"></path>
        </g>
    </g>
</svg>